General
Complete name : P!nk - Blow Me (One Last Kiss)720p HD {ECS}.mp4
Format : MPEG-4
Format profile : Base Media
Codec ID : isom
File size : 25.1 MiB
Duration : 3mn 47s
Overall bit rate mode : Variable
Overall bit rate : 926 Kbps
Encoded date : UTC 2012-07-29 17:06:58
Tagged date : UTC 2012-07-29 17:06:58

Video
ID : 1
Format : AVC
Format/Info : Advanced Video Codec
Format profile : High@L4.1
Format settings, CABAC : Yes
Format settings, ReFrames : 3 frames
Codec ID : avc1
Codec ID/Info : Advanced Video Coding
Duration : 3mn 47s
Bit rate mode : Variable
Bit rate : 792 Kbps
Maximum bit rate : 14.0 Mbps
Width : 1 280 pixels
Height : 512 pixels
Display aspect ratio : 2.500
Frame rate mode : Constant
Frame rate : 23.976 fps
Color space : YUV
Chroma subsampling : 4:2:0
Bit depth : 8 bits
Scan type : Progressive
Bits/(Pixel*Frame) : 0.050
Stream size : 21.5 MiB (86%)
Writing library : x264 core 125 r2200 999b753

Audio
ID : 2
Format : AC-3
Format/Info : Audio Coding 3
Mode extension : CM (complete main)
Format settings, Endianness : Big
Codec ID : ac-3
Duration : 3mn 47s
Bit rate mode : Constant
Bit rate : 128 Kbps
Channel(s) : 2 channels
Channel positions : Front: L R
Sampling rate : 44.1 KHz
Bit depth : 16 bits
Compression mode : Lossy
Stream size : 3.47 MiB (14%)

 
http://i1271.photobucket.com/albums/jj629/sameer_ecs/Pnk-BlowMeOneLastKiss720pHDECSmp4_thumbs_20120730_121415.jpg